<svg xmlns="http://www.w3.org/2000/svg" viewBox="0 0 631.763 173.329"><g id="Layer_1" data-name="Layer 1"><path d="M470.447,93.676,458.65,67.17,446.718,93.676ZM456.014,60.367h5.412l23.591,52.317h-6.245l-6.1-13.736H444.5l-6.247,13.736h-5.966Zm58.979,26.782a15.68,15.68,0,0,0,5.273-.692,11.34,11.34,0,0,0,4.3-2.08,10.529,10.529,0,0,0,2.776-3.332,9.48,9.48,0,0,0,.97-4.441v-.139a8.941,8.941,0,0,0-3.467-7.631c-2.361-1.8-5.551-2.638-9.854-2.638H499.034V87.149ZM493.065,60.783h22.343a23.746,23.746,0,0,1,8.6,1.391,15.7,15.7,0,0,1,6.245,3.742,13.016,13.016,0,0,1,2.915,4.582,14.881,14.881,0,0,1,.97,5.69v.138a15.115,15.115,0,0,1-.97,5.829,13.629,13.629,0,0,1-2.915,4.439,14.018,14.018,0,0,1-4.441,3.057,24.768,24.768,0,0,1-5.689,1.8l15.959,21.233h-7.217l-14.988-20.26H499.034v20.26h-5.969ZM558.288,66.2H540.8V60.783h40.8V66.2H564.118v46.488h-5.83Zm31.78-5.413h7.079v.278l-6.108,19.846h-3.191Zm34.138,52.594a30.721,30.721,0,0,1-11.378-2.08,28.908,28.908,0,0,1-9.715-6.244l3.607-4.3a29.421,29.421,0,0,0,8.187,5.551,23.145,23.145,0,0,0,9.576,1.8,13.358,13.358,0,0,0,8.465-2.5A7.619,7.619,0,0,0,636,99.365v-.277a8.175,8.175,0,0,0-.555-3.195,7.273,7.273,0,0,0-2.08-2.633,14.376,14.376,0,0,0-4.165-2.084,51.044,51.044,0,0,0-6.661-1.941,47.167,47.167,0,0,1-7.77-2.223,19.787,19.787,0,0,1-5.414-2.912,11.189,11.189,0,0,1-3.189-4.166,14.106,14.106,0,0,1-1.109-5.549v-.277a12.486,12.486,0,0,1,4.854-9.993,14.87,14.87,0,0,1,5.413-3.054,21.157,21.157,0,0,1,6.8-1.11,27.978,27.978,0,0,1,9.992,1.663,33.026,33.026,0,0,1,8.188,4.72l-3.33,4.58a25.5,25.5,0,0,0-7.356-4.3,23.265,23.265,0,0,0-7.633-1.387c-3.467,0-6.105.832-8.047,2.5a7.112,7.112,0,0,0-3.053,5.967v.138a8.393,8.393,0,0,0,.692,3.328,6.051,6.051,0,0,0,2.082,2.639,17.665,17.665,0,0,0,4.3,2.219,42.676,42.676,0,0,0,7.077,1.807c5.689,1.386,9.991,3.189,12.767,5.412a11.351,11.351,0,0,1,4.161,9.3v.139a14.668,14.668,0,0,1-1.386,6.106,12.93,12.93,0,0,1-3.607,4.578,17.9,17.9,0,0,1-5.55,3.051,23.943,23.943,0,0,1-7.218.97Zm50.931.139a27.012,27.012,0,0,1-10.547-2.078,24.763,24.763,0,0,1-8.327-5.692,26.32,26.32,0,0,1-7.493-18.873v-.14a25.763,25.763,0,0,1,1.942-10.407,25.481,25.481,0,0,1,5.551-8.6,25.924,25.924,0,0,1,8.466-5.69,24.705,24.705,0,0,1,10.824-2.222,31.361,31.361,0,0,1,6.521.693,25.846,25.846,0,0,1,5.273,1.668,24.029,24.029,0,0,1,4.581,2.5A28.858,28.858,0,0,1,695.813,68l-5.826,6.66a28.009,28.009,0,0,0-6.526-4.58,16.787,16.787,0,0,0-8.047-1.8,16.124,16.124,0,0,0-6.8,1.386,19.175,19.175,0,0,0-5.417,3.887,17.883,17.883,0,0,0-3.6,5.828,20.79,20.79,0,0,0-1.247,7.213v.139a20.052,20.052,0,0,0,1.247,7.082,17.2,17.2,0,0,0,3.6,5.967,16.982,16.982,0,0,0,5.417,3.886,16.22,16.22,0,0,0,6.8,1.524,18.323,18.323,0,0,0,8.185-1.8,31.765,31.765,0,0,0,6.8-5l5.829,5.967a51.1,51.1,0,0,1-4.164,3.744,32.527,32.527,0,0,1-4.719,2.916,23.863,23.863,0,0,1-5.551,1.941,32.293,32.293,0,0,1-6.659.555Zm49.677,0a27.551,27.551,0,0,1-9.155-1.526,18.816,18.816,0,0,1-6.941-4.3,18.165,18.165,0,0,1-4.442-7.213,30.043,30.043,0,0,1-1.525-9.854V60.783h9.021V90.205c0,4.858,1.11,8.606,3.472,11.1s5.55,3.748,9.709,3.748a12.968,12.968,0,0,0,9.576-3.609c2.363-2.356,3.61-5.965,3.61-10.823V60.783h9.022V90.205a28.11,28.11,0,0,1-1.669,10.131,18.676,18.676,0,0,1-4.436,7.352,18.307,18.307,0,0,1-7.081,4.3,26.375,26.375,0,0,1-9.161,1.526Zm56.758-9.018a13.752,13.752,0,0,0,7.36-1.666,6.125,6.125,0,0,0,2.633-5.412v-.138a5.82,5.82,0,0,0-2.633-5.137c-1.669-1.248-4.443-1.8-8.053-1.8H766.585V104.5Zm-2.634-21.927a13.368,13.368,0,0,0,7.077-1.664,5.879,5.879,0,0,0,2.638-5.276v-.137a5.629,5.629,0,0,0-2.223-4.857c-1.663-1.248-3.882-1.8-6.8-1.8H766.585V82.571ZM757.429,60.783h23.312c5.967,0,10.407,1.53,13.463,4.581a11.512,11.512,0,0,1,3.467,8.6v.139a13.257,13.257,0,0,1-.555,4.164,9.9,9.9,0,0,1-1.665,3.189,7.615,7.615,0,0,1-2.356,2.362,12.027,12.027,0,0,1-2.778,1.8,28.918,28.918,0,0,1,4.164,1.942,14.969,14.969,0,0,1,3.328,2.5,14.138,14.138,0,0,1,2.084,3.47,16.079,16.079,0,0,1,.693,4.719v.137A12.039,12.039,0,0,1,799.2,104.5a11.172,11.172,0,0,1-3.886,4.582,18.117,18.117,0,0,1-5.966,2.633,34.309,34.309,0,0,1-7.913.971h-24Zm51.347,0h38.438v8.19H817.932V82.291h25.95v8.33h-25.95V104.36h29.7v8.324H808.776Z" transform="translate(-215.867)" style="fill:#354582"/></g><g id="Layer_2" data-name="Layer 2"><polygon points="97.139 9.581 133.637 59.259 169.994 109.08 180.265 122.954 162.918 122.954 126.977 122.954 129.615 119.35 133.498 114.215 129.615 109.08 126.977 105.47 145.713 105.47 119.485 69.666 90.063 29.56 60.783 69.666 34.556 105.47 53.15 105.47 50.514 109.08 46.766 114.215 50.514 119.35 53.15 122.954 17.208 122.954 0 122.954 10.13 109.08 46.628 59.259 83.124 9.581 90.063 0 97.139 9.581" style="fill:#c83438"/><polygon points="97.139 64.67 113.375 86.873 126.977 105.47 105.329 105.47 99.362 97.28 90.063 84.655 80.903 97.28 68.555 114.215 80.903 131.143 90.063 143.631 99.362 131.143 105.329 122.954 126.977 122.954 113.375 141.551 97.139 163.614 90.063 173.329 83.124 163.614 66.749 141.551 50.514 119.35 46.766 114.215 50.514 109.08 66.749 86.873 83.124 64.67 90.063 55.094 97.139 64.67" style="fill:#354582"/></g></svg>