<svg id="Layer_1" data-name="Layer 1" xmlns="http://www.w3.org/2000/svg" width="16" height="16" viewBox="0 0 16 16" style="width: 16px; height:16px;">
  <polygon points="8.622 1.158 11.861 5.568 15.088 9.99 16 11.221 14.46 11.221 11.27 11.221 11.504 10.901 11.849 10.445 11.504 9.99 11.27 9.669 12.933 9.669 10.605 6.491 7.994 2.931 5.395 6.491 3.067 9.669 4.718 9.669 4.484 9.99 4.151 10.445 4.484 10.901 4.718 11.221 1.527 11.221 0 11.221 0.899 9.99 4.139 5.568 7.378 1.158 7.994 0.308 8.622 1.158" style="fill: #c93438"/>
  <polygon points="8.622 6.048 10.063 8.019 11.27 9.669 9.349 9.669 8.819 8.942 7.994 7.822 7.181 8.942 6.085 10.445 7.181 11.948 7.994 13.056 8.819 11.948 9.349 11.221 11.27 11.221 10.063 12.872 8.622 14.83 7.994 15.692 7.378 14.83 5.925 12.872 4.484 10.901 4.151 10.445 4.484 9.99 5.925 8.019 7.378 6.048 7.994 5.198 8.622 6.048" style="fill: #364682"/>
</svg>